<?xml version="1.0" standalone="no"?>
<!DOCTYPE svg PUBLIC "-//W3C//DTD SVG 20010904//EN"
 "http://www.w3.org/TR/2001/REC-SVG-20010904/DTD/svg10.dtd">
<svg version="1.0" xmlns="http://www.w3.org/2000/svg"
 width="2560.000000pt" height="1600.000000pt" viewBox="0 0 2560.000000 1600.000000"
 preserveAspectRatio="xMidYMid meet">

<g transform="translate(0.000000,1600.000000) scale(0.100000,-0.100000)"
fill="#000000" stroke="none">
<path d="M17889 14937 c-121 -74 -445 -337 -799 -650 -175 -155 -556 -506
-725 -668 -49 -47 -175 -166 -280 -264 -374 -350 -543 -513 -770 -740 -222
-223 -533 -499 -759 -675 -60 -47 -218 -177 -351 -290 -133 -113 -286 -241
-340 -285 -410 -336 -483 -408 -511 -501 -19 -68 -8 -164 46 -383 22 -89 43
-193 46 -230 15 -159 -42 -423 -153 -706 -53 -135 -254 -523 -324 -625 -99
-144 -280 -299 -449 -385 -50 -25 -60 -27 -128 -21 -104 10 -246 40 -397 86
-385 117 -596 180 -647 194 -66 19 -171 21 -219 4 -19 -6 -131 -70 -249 -141
-118 -71 -228 -138 -245 -147 -16 -10 -133 -80 -260 -157 -126 -77 -311 -188
-410 -248 -99 -60 -219 -135 -267 -167 -47 -32 -89 -58 -92 -58 -3 0 -49 -25
-103 -56 -306 -176 -477 -303 -504 -372 -5 -13 -23 -101 -39 -195 -17 -95 -42
-236 -56 -314 -22 -123 -24 -148 -13 -180 7 -21 62 -139 122 -263 121 -247
117 -243 132 -109 7 60 10 64 82 140 63 65 90 86 170 125 79 38 111 48 182 56
121 14 213 0 577 -87 170 -41 408 -99 528 -127 286 -69 241 -29 651 -573 120
-159 248 -328 284 -375 36 -47 77 -101 92 -120 38 -51 42 -67 18 -91 -18 -18
-29 -21 -72 -16 -28 4 -53 10 -56 14 -3 5 -27 27 -53 50 -42 38 -53 43 -95 43
-83 0 -162 -64 -202 -163 -16 -39 -34 -63 -59 -81 -21 -13 -64 -50 -96 -80
-40 -38 -78 -63 -116 -77 -31 -11 -69 -32 -83 -45 -15 -14 -27 -22 -27 -18 0
4 -8 -1 -18 -12 -29 -32 -61 -105 -77 -178 -21 -89 -48 -124 -153 -190 -79
-50 -91 -62 -133 -133 -33 -55 -50 -98 -59 -145 l-12 -66 -74 -39 c-40 -21
-88 -46 -107 -55 -18 -9 -39 -23 -46 -32 -8 -9 -18 -16 -23 -16 -16 0 -37 -26
-44 -55 l-7 -27 -106 5 -106 5 -145 78 c-80 43 -181 93 -225 112 -44 18 -120
51 -170 72 -184 79 -365 138 -365 119 0 -5 -6 -9 -13 -9 -12 0 -84 -48 -113
-75 -6 -5 -33 -28 -60 -50 -26 -22 -61 -52 -77 -67 -16 -16 -32 -28 -35 -28
-14 0 -169 -166 -176 -188 -4 -12 -12 -22 -17 -22 -5 0 -9 -11 -9 -25 0 -14 1
-25 3 -25 2 0 43 16 91 36 49 19 90 33 92 32 2 -2 -19 -28 -46 -58 -58 -64
-112 -148 -131 -205 -7 -22 -21 -51 -30 -65 -9 -14 -22 -43 -29 -65 -7 -22
-17 -49 -23 -60 -10 -20 -16 -74 -10 -87 2 -4 30 19 61 51 88 91 244 171 367
187 119 15 271 5 400 -27 100 -25 147 -45 281 -114 272 -143 432 -275 488
-403 24 -57 28 -80 29 -167 1 -65 -5 -122 -16 -165 -9 -36 -19 -78 -21 -95 -2
-16 -7 -38 -11 -47 -3 -9 -5 -24 -3 -33 4 -21 46 9 150 110 123 119 168 240
168 458 l1 102 25 -30 c15 -16 54 -62 88 -101 33 -39 106 -124 161 -189 55
-66 121 -143 147 -172 l48 -53 2 159 3 158 165 -158 165 -158 3 52 c1 29 -1
102 -6 162 -5 61 -8 112 -6 113 1 2 104 -64 229 -148 125 -83 229 -149 232
-146 3 2 -23 89 -57 191 -34 102 -60 189 -57 192 3 3 88 -27 189 -65 100 -39
184 -69 186 -67 2 2 -28 97 -67 212 -39 114 -71 211 -71 216 0 4 107 -47 238
-112 130 -66 238 -115 240 -110 2 4 -12 66 -31 136 -47 170 -57 230 -57 331
l0 84 33 -5 c17 -3 89 -11 159 -18 126 -11 127 -12 160 -47 20 -21 28 -36 21
-39 -31 -11 -98 -75 -114 -108 -21 -43 -17 -55 36 -113 18 -21 67 -87 108
-149 l75 -112 -35 -67 c-42 -78 -142 -188 -228 -250 -34 -24 -97 -57 -141 -75
-43 -17 -81 -34 -84 -36 -3 -3 51 -2 120 1 103 6 144 14 235 43 148 47 240 91
311 147 32 25 65 46 71 46 40 0 72 -150 80 -380 5 -143 3 -164 -21 -275 -15
-66 -34 -139 -43 -162 -8 -23 -15 -45 -14 -48 1 -3 -5 -13 -14 -21 -8 -9 -15
-24 -15 -35 0 -10 -5 -19 -11 -19 -5 0 -7 -4 -4 -10 3 -5 -7 -27 -22 -47 l-28
-38 33 21 c136 85 243 199 512 546 l44 57 33 -95 c31 -91 65 -162 104 -212
l18 -23 25 39 c48 76 62 110 96 230 19 67 38 122 41 122 12 0 72 -127 109
-228 21 -59 47 -129 58 -155 l19 -49 18 103 c14 82 17 137 13 276 -3 95 -3
173 -1 173 2 0 26 -11 54 -26 44 -22 55 -24 84 -14 43 14 45 27 45 254 l1 181
19 -37 c11 -21 32 -75 46 -120 37 -122 71 -184 106 -199 59 -24 76 14 77 171
1 56 -9 118 -40 243 -47 190 -45 211 13 219 18 3 38 3 44 1 17 -6 121 -229
143 -308 12 -38 32 -160 46 -269 13 -109 27 -201 30 -204 3 -3 40 5 83 18 42
13 102 30 133 39 l56 15 82 -42 c45 -24 96 -43 114 -43 30 -1 93 21 360 125
66 25 193 84 284 131 141 74 167 84 181 73 10 -7 44 -36 76 -65 33 -29 66 -53
73 -53 8 0 102 48 208 106 l194 106 66 -22 c76 -25 63 -31 174 75 152 145 212
215 240 281 18 41 30 55 61 69 21 10 41 23 44 29 2 6 42 106 89 221 46 116
124 298 171 405 59 132 101 244 130 347 l43 152 -12 83 c-12 80 -11 90 26 292
22 116 39 216 39 223 0 6 -25 29 -55 50 -51 35 -55 40 -49 68 3 17 8 103 11
193 4 138 2 166 -11 180 -9 11 -16 42 -18 82 l-3 65 -55 -2 -55 -3 0 163 c0
144 -3 168 -23 217 -34 83 -27 80 -117 70 -44 -5 -163 -19 -265 -30 -397 -44
-484 -50 -792 -50 l-307 0 -47 63 c-26 34 -51 67 -56 74 -6 8 28 31 113 75 66
34 123 68 126 75 2 6 -39 76 -91 154 -53 79 -92 146 -88 150 4 3 81 12 172 18
172 13 210 18 210 31 0 4 -24 63 -54 131 -29 68 -52 125 -51 126 1 2 37 -2 81
-7 88 -12 399 -14 475 -4 82 11 77 48 -17 122 -59 47 -93 87 -253 297 -115
150 -148 180 -159 146 -3 -9 0 -11 8 -6 9 5 11 4 6 -4 -11 -16 22 -111 49
-141 12 -14 30 -39 40 -57 10 -18 22 -30 27 -27 4 3 8 -2 8 -11 0 -9 4 -14 9
-11 4 3 6 -5 4 -18 -5 -23 -7 -22 -51 23 -26 27 -67 72 -92 101 -63 75 -97
105 -144 128 -54 27 -99 46 -108 44 -4 -1 -26 5 -49 13 -24 9 -49 13 -57 10
-7 -2 -11 -1 -8 3 6 10 -160 62 -196 62 -19 0 -20 2 -8 11 12 9 10 10 -9 6
-13 -3 -42 3 -65 13 -101 44 -118 50 -128 44 -7 -4 -8 -2 -4 4 4 7 -8 15 -30
21 -31 9 -101 47 -202 113 -32 21 -70 38 -83 38 -6 0 -8 4 -5 8 2 4 -4 8 -14
8 -10 0 -16 -4 -14 -8 3 -4 -2 -8 -11 -8 -9 0 -13 5 -9 11 4 7 1 10 -7 7 -8
-3 -13 -10 -12 -16 2 -6 -4 -9 -12 -6 -8 4 -12 11 -8 17 3 5 2 8 -3 5 -5 -2
-26 -12 -46 -22 -21 -9 -38 -19 -38 -22 0 -3 6 -2 13 2 9 5 9 4 1 -5 -6 -7
-21 -13 -33 -14 -13 -1 -27 -10 -33 -20 -7 -13 -7 -17 0 -13 6 3 14 1 18 -6 4
-7 4 -10 -1 -6 -4 4 -18 -6 -32 -23 -14 -16 -31 -29 -39 -29 -9 0 -12 -5 -8
-12 5 -8 2 -9 -10 -5 -12 5 -16 2 -14 -11 2 -9 -3 -16 -10 -14 -6 1 -11 -4
-10 -10 2 -7 -2 -12 -9 -11 -7 2 -10 -6 -8 -17 2 -11 -1 -20 -6 -20 -6 0 -7
-5 -4 -10 4 -6 12 -7 18 -3 7 4 5 -4 -4 -17 -10 -16 -13 -32 -8 -45 4 -11 8
-30 8 -43 1 -21 0 -22 -15 -8 -8 9 -20 16 -26 16 -5 0 -34 16 -63 35 -44 30
-61 36 -99 34 -25 -2 -49 1 -53 6 -5 4 0 5 10 2 17 -6 25 7 9 16 -9 6 -53 -28
-46 -36 3 -3 -3 -8 -13 -11 -11 -3 -25 -22 -32 -41 -6 -19 -18 -34 -24 -32 -7
1 -11 -4 -9 -10 6 -33 -84 0 -92 33 -9 36 -103 122 -140 130 -19 3 -40 3 -47
-2 -7 -4 -10 -3 -6 3 9 15 -35 22 -64 10 -37 -15 -101 -18 -93 -5 5 8 -3 9
-27 6 -46 -8 -139 12 -289 61 -135 45 -189 47 -221 10 -9 -11 -23 -19 -31 -19
-8 0 -18 -11 -24 -25 -8 -22 -11 -24 -33 -12 -13 6 -29 21 -35 32 -6 11 -20
27 -30 35 -11 8 -32 27 -48 42 -15 14 -28 22 -28 17 0 -6 -11 -1 -25 10 -14
11 -40 23 -57 26 -22 5 -27 10 -17 16 23 14 -31 27 -88 22 -36 -4 -53 -2 -53
6 0 6 -17 11 -40 11 -33 0 -40 4 -40 19 0 10 -9 21 -20 24 -11 3 -20 12 -20
21 0 9 -8 16 -20 16 -13 0 -20 7 -20 19 0 10 -9 21 -20 24 -11 3 -20 12 -20
21 0 9 -8 16 -20 16 -11 0 -20 5 -20 10 0 6 16 10 36 10 67 0 124 50 73 63
-28 8 -20 29 19 47 17 8 32 21 32 28 0 6 4 12 8 12 5 0 40 29 77 64 38 36 71
64 75 64 19 -2 30 4 30 15 0 7 15 25 33 41 17 15 37 36 42 46 6 9 25 35 43 56
41 48 122 175 122 191 0 6 3 13 8 15 7 3 35 58 122 243 29 61 63 133 76 160
22 47 41 94 86 210 16 43 34 101 79 265 32 114 49 234 49 344 0 120 -3 138
-81 471 -10 44 -19 102 -19 130 0 50 26 135 41 135 5 0 9 6 9 13 0 12 93 110
150 158 14 11 47 39 75 62 27 23 85 74 130 112 44 39 120 104 169 145 49 41
140 118 201 170 121 102 397 334 430 362 346 286 509 434 750 679 211 215 453
453 710 699 456 436 531 507 660 625 66 61 149 137 185 171 122 113 165 152
345 309 99 87 194 169 210 184 52 45 216 175 304 240 67 49 90 61 115 59 22
-2 32 -9 37 -28 4 -16 7 1 8 47 1 53 -3 76 -15 87 -22 22 -33 20 -95 -17z
m-5033 -6963 c-4 -9 -9 -15 -11 -12 -3 3 -3 13 1 22 4 9 9 15 11 12 3 -3 3
-13 -1 -22z m-32 1 c-4 -8 -11 -15 -16 -15 -6 0 -5 6 2 15 7 8 14 15 16 15 2
0 1 -7 -2 -15z m3501 -689 c3 2 3 1 0 -2 -2 -4 7 -20 20 -36 28 -33 33 -68 10
-68 -8 0 -15 -4 -15 -8 0 -14 -61 -12 -97 3 -36 15 -36 12 -13 101 10 41 1 87
-15 80 -8 -3 -11 2 -8 15 5 16 13 11 59 -35 29 -29 56 -52 59 -50z m-426 -137
c16 -25 17 -36 9 -55 -14 -30 -21 -30 -53 0 -21 19 -23 25 -10 30 8 3 15 11
14 18 0 10 -2 10 -6 1 -7 -20 -23 -15 -23 6 0 16 5 19 26 15 16 -3 23 -1 19 6
-3 5 -4 10 0 10 3 0 14 -14 24 -31z m-9 -209 c0 -5 -4 -10 -10 -10 -5 0 -10 5
-10 10 0 6 5 10 10 10 6 0 10 -4 10 -10z m-270 -80 c-9 -5 -9 -13 -2 -26 7
-14 6 -26 -4 -44 -8 -16 -13 -19 -14 -9 0 8 6 21 13 29 6 8 1 5 -13 -6 l-25
-21 -28 33 -28 33 33 9 c41 11 85 12 68 2z m-493 -441 c47 -18 172 -32 295
-33 64 0 114 -4 112 -8 -3 -5 -1 -8 5 -8 6 0 8 -7 5 -15 -4 -9 0 -15 7 -15 11
0 11 -2 0 -9 -12 -8 -10 -19 9 -70 33 -90 100 -147 189 -163 96 -17 576 -3
741 22 36 5 180 23 320 40 279 34 301 33 322 -17 6 -16 11 -31 10 -34 0 -3 3
-33 8 -67 4 -33 5 -77 0 -96 -4 -20 -4 -36 0 -36 4 0 6 -13 5 -30 -2 -22 9
-44 47 -91 78 -97 81 -108 81 -309 -1 -118 3 -180 11 -189 8 -12 8 -13 -1 -7
-19 11 -17 4 27 -81 35 -69 39 -82 30 -113 -9 -36 -35 -167 -51 -256 -5 -28
-7 -83 -6 -123 2 -39 1 -67 -3 -62 -3 6 -6 -15 -7 -47 -1 -31 -9 -75 -17 -97
-8 -22 -15 -48 -16 -57 0 -26 -22 -68 -31 -62 -5 3 -7 -19 -5 -48 1 -29 1 -48
-1 -41 -11 32 -79 -70 -74 -111 2 -12 -1 -16 -10 -10 -9 5 -11 2 -6 -9 4 -10
2 -14 -7 -11 -8 3 -17 -10 -24 -35 -7 -21 -19 -41 -27 -44 -7 -3 -17 -22 -21
-41 -4 -23 -12 -36 -23 -37 -30 -2 -56 3 -59 12 -7 18 -30 8 -36 -16 -3 -13
-14 -29 -24 -34 -22 -11 -62 4 -62 24 0 8 -9 15 -20 15 -13 0 -20 7 -20 19 0
10 -9 21 -20 24 -11 3 -20 12 -20 21 0 9 -8 16 -20 16 -13 0 -20 7 -20 19 0
10 -9 21 -20 24 -11 3 -20 12 -20 21 0 9 -8 16 -20 16 -13 0 -20 7 -20 19 0
10 -9 21 -20 24 -11 3 -20 12 -20 21 0 9 -8 16 -20 16 -13 0 -20 7 -20 19 0
10 -9 21 -20 24 -11 3 -20 12 -20 21 0 9 -8 16 -20 16 -13 0 -20 7 -20 19 0
10 -9 21 -20 24 -11 3 -20 12 -20 21 0 9 -8 16 -20 16 -13 0 -20 7 -20 19 0
10 -9 21 -20 24 -11 3 -20 12 -20 21 0 9 -8 16 -20 16 -13 0 -20 7 -20 19 0
10 -9 21 -20 24 -11 3 -20 12 -20 21 0 9 -8 16 -20 16 -13 0 -20 7 -20 20 0
12 -7 20 -16 20 -9 0 -18 9 -21 20 -3 11 -14 20 -24 20 -12 0 -19 7 -19 20 0
12 -7 20 -16 20 -9 0 -18 9 -21 20 -3 11 -14 20 -24 20 -12 0 -19 7 -19 20 0
12 -7 20 -16 20 -9 0 -18 9 -21 20 -3 11 -14 20 -24 20 -12 0 -19 7 -19 20 0
12 -7 20 -16 20 -9 0 -18 9 -21 20 -3 11 -14 20 -24 20 -12 0 -19 7 -19 20 0
12 -7 20 -16 20 -9 0 -18 9 -21 20 -3 11 -14 20 -24 20 -12 0 -19 7 -19 20 0
12 -7 20 -16 20 -9 0 -18 9 -21 20 -3 11 -14 20 -24 20 -12 0 -19 7 -19 20 0
12 -7 20 -16 20 -9 0 -18 9 -21 20 -3 11 -14 20 -24 20 -12 0 -19 7 -19 19 0
10 -9 21 -20 24 -11 3 -20 12 -20 21 0 9 -8 16 -20 16 -13 0 -20 7 -20 19 0
10 -9 21 -20 24 -11 3 -20 12 -20 21 0 9 -8 16 -20 16 -13 0 -20 7 -20 19 0
10 -9 21 -20 24 -11 3 -20 12 -20 21 0 9 -8 16 -20 16 -13 0 -20 7 -20 19 0
10 -9 21 -20 24 -11 3 -20 12 -20 21 0 9 -8 16 -20 16 -13 0 -20 7 -20 19 0
10 -9 21 -20 24 -11 3 -20 12 -20 21 0 9 -8 16 -20 16 -13 0 -20 7 -20 20 0
12 -7 20 -16 20 -9 0 -18 9 -21 20 -3 11 -14 20 -24 20 -12 0 -19 7 -19 20 0
12 -7 20 -16 20 -9 0 -18 9 -21 20 -3 11 -14 20 -24 20 -12 0 -19 7 -19 20 0
12 -7 20 -16 20 -9 0 -18 9 -21 20 -3 11 -14 20 -24 20 -12 0 -19 7 -19 19 0
10 -9 21 -20 24 -27 7 -25 35 3 40 12 2 3 5 -20 6 -39 1 -43 3 -43 26 0 24 3
25 54 25 56 0 82 13 46 23 -12 3 -20 14 -20 25 0 15 9 21 37 27 71 13 114 96
95 182 -20 92 -29 119 -54 169 -29 59 -42 104 -29 104 5 0 22 -5 38 -11z
m-284 -416 c-7 -2 -19 -2 -25 0 -7 3 -2 5 12 5 14 0 19 -2 13 -5z m67 -44 c0
-5 -7 -9 -15 -9 -8 0 -15 7 -15 15 0 9 6 12 15 9 8 -4 15 -10 15 -15z"/>
<path d="M15520 6351 c0 -6 4 -13 10 -16 6 -3 7 1 4 9 -7 18 -14 21 -14 7z"/>
<path d="M15088 5843 c6 -2 18 -2 25 0 6 3 1 5 -13 5 -14 0 -19 -2 -12 -5z"/>
<path d="M16990 4090 c0 -5 5 -10 10 -10 6 0 10 5 10 10 0 6 -4 10 -10 10 -5
0 -10 -4 -10 -10z"/>
<path d="M17982 14750 c0 -14 2 -19 5 -12 2 6 2 18 0 25 -3 6 -5 1 -5 -13z"/>
<path d="M17961 14674 c0 -11 3 -14 6 -6 3 7 2 16 -1 19 -3 4 -6 -2 -5 -13z"/>
<path d="M17946 14624 c-4 -14 -5 -28 -3 -31 3 -2 8 8 11 23 4 14 5 28 3 31
-3 2 -8 -8 -11 -23z"/>
<path d="M17926 14554 c-4 -14 -5 -28 -3 -31 3 -2 8 8 11 23 4 14 5 28 3 31
-3 2 -8 -8 -11 -23z"/>
<path d="M17911 14494 c0 -11 3 -14 6 -6 3 7 2 16 -1 19 -3 4 -6 -2 -5 -13z"/>
<path d="M6835 14487 c-38 -47 -38 -44 -8 -85 15 -22 80 -104 143 -183 419
-523 594 -825 876 -1519 35 -85 62 -156 60 -157 -2 -2 -49 52 -105 119 -226
270 -378 431 -556 588 -99 87 -259 229 -355 315 -96 86 -204 176 -240 200 -93
63 -245 115 -336 115 -69 0 -72 -1 -104 -36 -30 -33 -32 -40 -27 -84 9 -79 74
-190 350 -605 280 -420 321 -484 316 -489 -2 -2 -89 53 -194 121 -277 181
-366 229 -494 268 -185 57 -319 59 -368 7 -52 -56 -51 -60 17 -121 175 -156
484 -493 746 -811 159 -194 328 -402 348 -429 14 -18 8 -16 -144 39 -63 23
-145 53 -182 66 -115 41 -449 103 -594 110 -117 6 -134 5 -174 -13 -67 -30
-104 -69 -104 -109 0 -43 18 -61 127 -130 259 -162 540 -370 732 -543 396
-354 506 -476 658 -724 90 -148 307 -632 402 -897 128 -357 269 -606 375 -660
51 -26 151 -40 281 -40 164 0 430 -26 566 -55 120 -25 256 -78 365 -142 61
-36 151 -143 367 -436 l93 -127 57 32 c31 17 128 74 216 126 88 53 234 139
325 192 91 53 316 186 500 295 184 109 353 208 375 220 l40 23 225 -64 c998
-285 940 -274 1093 -198 50 25 128 73 172 107 83 63 165 136 165 148 0 4 -42
34 -92 68 -111 72 -163 119 -208 186 -62 93 -104 145 -118 145 -7 0 -33 -16
-56 -35 -24 -19 -46 -35 -49 -35 -3 0 -29 71 -57 158 -81 243 -89 262 -110
262 -10 0 -54 -7 -97 -15 -43 -8 -81 -15 -84 -15 -4 0 -14 17 -22 38 -36 89
-226 500 -299 645 -79 158 -170 297 -209 318 -22 11 -54 -7 -165 -90 l-40 -30
-19 82 c-27 120 -139 413 -206 539 -7 13 -20 4 -77 -54 l-69 -71 -28 74 c-144
376 -248 625 -329 786 -116 227 -158 297 -164 268 -2 -11 -12 -31 -22 -45 -10
-14 -32 -53 -49 -87 -17 -35 -33 -63 -35 -63 -2 0 -41 66 -87 148 -191 341
-516 780 -636 859 -42 28 -53 12 -53 -79 l0 -82 -107 146 c-60 81 -136 184
-170 230 -99 134 -209 257 -359 402 -178 171 -281 254 -379 305 -97 51 -144
65 -152 45 -3 -7 -9 -11 -14 -8 -12 7 -11 0 6 -71 8 -33 14 -79 15 -103 0 -50
-19 -134 -30 -130 -4 2 -61 61 -128 132 -157 167 -289 280 -487 415 -220 149
-450 271 -586 311 -112 32 -216 39 -234 17z m348 -234 c4 -3 20 -8 36 -9 16
-2 45 -13 63 -23 18 -11 53 -30 78 -43 25 -13 47 -25 50 -28 3 -3 30 -18 60
-34 30 -16 69 -40 86 -53 17 -13 36 -23 42 -23 7 0 12 -4 12 -9 0 -5 15 -15
33 -22 34 -14 46 -23 107 -76 21 -18 41 -33 45 -33 9 0 70 -52 172 -147 36
-35 70 -63 75 -63 4 0 8 -5 8 -11 0 -9 119 -131 165 -168 10 -8 41 -16 69 -19
44 -3 56 0 92 26 42 31 74 95 74 148 0 26 27 45 50 35 20 -8 73 -43 85 -56 6
-6 39 -36 75 -66 86 -72 294 -278 361 -358 84 -101 85 -101 147 -186 135 -185
174 -235 183 -235 5 0 9 -5 9 -11 0 -12 13 -25 59 -57 28 -20 40 -23 84 -18
91 11 97 10 130 -26 73 -77 101 -115 271 -367 49 -72 93 -131 98 -131 4 0 8
-6 8 -14 0 -8 18 -44 40 -80 22 -36 40 -70 40 -75 0 -11 36 -67 72 -115 28
-36 76 -66 104 -66 12 0 45 7 73 17 l52 16 29 -28 c16 -15 32 -41 35 -56 4
-16 10 -29 15 -29 5 0 12 -10 16 -22 4 -13 22 -54 40 -92 19 -38 34 -76 34
-83 0 -8 5 -11 12 -7 8 5 9 2 5 -10 -4 -10 2 -35 15 -59 12 -23 23 -49 24 -57
2 -8 8 -24 13 -37 20 -43 30 -68 36 -93 3 -14 14 -45 25 -70 10 -25 32 -83 49
-130 53 -144 60 -156 101 -179 28 -15 55 -21 104 -21 54 0 68 -3 73 -17 4 -10
12 -21 19 -25 6 -5 29 -61 49 -125 20 -65 43 -132 51 -150 8 -17 14 -35 14
-41 0 -19 35 -88 57 -111 18 -19 35 -25 93 -29 57 -4 73 -2 83 11 11 14 39 21
79 18 9 -1 26 -18 39 -38 52 -86 99 -165 99 -169 0 -6 31 -76 90 -204 27 -58
51 -118 54 -133 4 -15 10 -26 14 -23 4 2 8 -7 8 -20 1 -13 10 -37 20 -52 10
-15 18 -30 16 -34 -1 -4 12 -33 28 -65 17 -32 30 -63 30 -70 0 -7 4 -13 10
-13 5 0 7 -6 4 -13 -6 -17 71 -96 99 -101 12 -2 51 -9 86 -15 68 -11 101 -34
101 -71 0 -11 4 -28 9 -38 17 -33 40 -97 47 -131 3 -19 15 -43 25 -55 11 -11
19 -25 19 -30 0 -6 23 -21 51 -33 38 -18 55 -20 70 -13 13 7 19 7 19 0 0 -5 9
-10 21 -10 13 0 40 -21 67 -51 74 -81 124 -130 167 -162 31 -23 34 -28 15 -22
-20 6 -23 5 -13 -6 14 -14 0 -39 -22 -39 -7 0 -18 -7 -25 -15 -7 -9 -19 -14
-26 -11 -8 3 -13 0 -11 -7 1 -6 -9 -13 -23 -15 -14 -2 -33 -11 -43 -20 -15
-14 -38 -16 -115 -15 -111 3 -136 9 -128 30 5 11 1 14 -13 10 -10 -2 -41 1
-67 9 -41 11 -44 13 -19 14 27 1 28 2 13 14 -10 7 -18 18 -18 25 0 6 -7 11
-15 11 -16 0 -87 31 -95 42 -11 15 -64 28 -112 28 -41 0 -51 3 -55 20 -3 11
-14 20 -24 20 -12 0 -19 7 -19 20 0 12 -7 20 -16 20 -9 0 -18 9 -21 20 -3 11
-14 20 -24 20 -12 0 -19 7 -19 20 0 12 -7 20 -16 20 -9 0 -18 9 -21 20 -3 11
-14 20 -24 20 -12 0 -19 7 -19 20 0 12 -7 20 -16 20 -9 0 -18 9 -21 20 -3 11
-14 20 -24 20 -12 0 -19 7 -19 20 0 12 -7 20 -16 20 -9 0 -18 9 -21 20 -3 11
-14 20 -24 20 -12 0 -19 7 -19 20 0 12 -7 20 -16 20 -9 0 -18 9 -21 20 -3 11
-14 20 -24 20 -12 0 -19 7 -19 20 0 12 -7 20 -16 20 -9 0 -18 9 -21 20 -3 11
-14 20 -24 20 -12 0 -19 7 -19 20 0 12 -7 20 -16 20 -9 0 -18 9 -21 20 -3 11
-14 20 -24 20 -12 0 -19 7 -19 20 0 12 -7 20 -16 20 -9 0 -18 9 -21 20 -3 11
-14 20 -24 20 -12 0 -19 7 -19 20 0 12 -7 20 -16 20 -9 0 -18 9 -21 20 -3 11
-14 20 -24 20 -12 0 -19 7 -19 20 0 12 -7 20 -16 20 -9 0 -18 9 -21 20 -3 11
-14 20 -24 20 -12 0 -19 7 -19 20 0 12 -7 20 -16 20 -9 0 -18 9 -21 20 -3 11
-14 20 -24 20 -12 0 -19 7 -19 20 0 12 -7 20 -16 20 -9 0 -18 9 -21 20 -3 11
-14 20 -24 20 -12 0 -19 7 -19 20 0 12 -7 20 -16 20 -9 0 -18 9 -21 20 -3 11
-14 20 -24 20 -12 0 -19 7 -19 20 0 12 -7 20 -16 20 -9 0 -18 9 -21 20 -3 11
-14 20 -24 20 -12 0 -19 7 -19 19 0 10 -9 21 -20 24 -11 3 -20 12 -20 21 0 9
-8 16 -20 16 -13 0 -20 7 -20 19 0 10 -9 21 -20 24 -11 3 -20 12 -20 21 0 9
-8 16 -20 16 -13 0 -20 7 -20 19 0 10 -9 21 -20 24 -11 3 -20 12 -20 21 0 9
-8 16 -20 16 -13 0 -20 7 -20 19 0 10 -9 21 -20 24 -11 3 -20 12 -20 21 0 9
-8 16 -20 16 -13 0 -20 7 -20 19 0 10 -9 21 -20 24 -11 3 -20 12 -20 21 0 9
-8 16 -20 16 -13 0 -20 7 -20 19 0 10 -9 21 -20 24 -11 3 -20 12 -20 21 0 9
-8 16 -20 16 -13 0 -20 7 -20 19 0 10 -9 21 -20 24 -11 3 -20 12 -20 21 0 9
-8 16 -20 16 -13 0 -20 7 -20 20 0 12 -7 20 -16 20 -9 0 -18 9 -21 20 -3 11
-14 20 -24 20 -12 0 -19 7 -19 20 0 12 -7 20 -16 20 -9 0 -18 9 -21 20 -3 11
-14 20 -24 20 -12 0 -19 7 -19 20 0 12 -7 20 -16 20 -9 0 -18 9 -21 20 -3 11
-14 20 -24 20 -12 0 -19 7 -19 20 0 12 -7 20 -16 20 -9 0 -18 9 -21 20 -3 11
-14 20 -24 20 -12 0 -19 7 -19 20 0 12 -7 20 -16 20 -9 0 -18 9 -21 20 -3 11
-14 20 -24 20 -12 0 -19 7 -19 20 0 12 -7 20 -16 20 -9 0 -18 9 -21 20 -3 11
-14 20 -24 20 -12 0 -19 7 -19 20 0 12 -7 20 -16 20 -9 0 -18 9 -21 20 -3 11
-14 20 -24 20 -12 0 -19 7 -19 20 0 12 -7 20 -16 20 -9 0 -18 9 -21 20 -3 11
-14 20 -24 20 -12 0 -19 7 -19 20 0 12 -7 20 -16 20 -9 0 -18 9 -21 20 -3 11
-14 20 -24 20 -12 0 -19 7 -19 20 0 12 -7 20 -16 20 -9 0 -18 9 -21 20 -3 11
-14 20 -24 20 -12 0 -19 7 -19 20 0 12 -7 20 -16 20 -9 0 -18 9 -21 20 -3 11
-14 20 -24 20 -12 0 -19 7 -19 20 0 12 -7 20 -16 20 -9 0 -18 9 -21 20 -3 11
-14 20 -24 20 -12 0 -19 7 -19 20 0 12 -7 20 -16 20 -9 0 -18 9 -21 20 -3 11
-14 20 -24 20 -12 0 -19 7 -19 20 0 12 -7 20 -16 20 -9 0 -18 9 -21 20 -3 11
-14 20 -24 20 -12 0 -19 7 -19 20 0 12 -7 20 -16 20 -9 0 -18 9 -21 20 -3 11
-14 20 -24 20 -12 0 -19 7 -19 19 0 10 -9 21 -20 24 -11 3 -20 12 -20 21 0 9
-8 16 -20 16 -13 0 -20 7 -20 19 0 10 -9 21 -20 24 -11 3 -20 12 -20 21 0 9
-8 16 -20 16 -13 0 -20 7 -20 19 0 10 -9 21 -20 24 -11 3 -20 12 -20 21 0 9
-8 16 -20 16 -13 0 -20 7 -20 20 0 12 -7 20 -16 20 -9 0 -18 9 -21 20 -3 11
-14 20 -24 20 -12 0 -19 7 -19 19 0 10 -9 21 -20 24 -11 3 -20 12 -20 21 0 9
-8 16 -20 16 -13 0 -20 7 -20 19 0 10 -9 21 -20 24 -11 3 -20 12 -20 21 0 9
-8 16 -20 16 -13 0 -20 7 -20 19 0 10 -9 21 -20 24 -11 3 -20 12 -20 21 0 9
-8 16 -20 16 -13 0 -20 7 -20 20 0 12 -7 20 -16 20 -9 0 -18 9 -21 20 -3 11
-14 20 -24 20 -12 0 -19 7 -19 20 0 12 -7 20 -16 20 -9 0 -18 9 -21 20 -3 11
-14 20 -24 20 -12 0 -19 7 -19 20 0 12 -7 20 -16 20 -9 0 -18 9 -21 20 -3 11
-14 20 -25 20 -23 0 -58 75 -58 124 0 20 -8 40 -20 51 -11 10 -20 27 -20 37 0
11 -7 26 -15 35 -9 8 -19 28 -22 44 -3 16 -9 29 -14 29 -8 0 -33 26 -96 95
-12 13 -24 34 -28 45 -3 11 -13 20 -21 20 -8 0 -14 7 -14 16 0 9 -11 27 -25
40 -14 13 -25 34 -25 48 0 14 -8 30 -17 35 -15 9 -16 12 -4 20 12 8 9 15 -17
37 -18 16 -32 38 -32 49 0 11 -14 33 -31 49 -16 16 -33 41 -36 57 -3 15 -11
30 -17 32 -7 3 -25 30 -40 61 -15 31 -32 56 -37 56 -5 0 -9 10 -9 23 0 12 -16
37 -35 56 -19 19 -40 50 -46 68 -6 18 -14 33 -18 33 -5 0 -21 19 -36 43 -15
23 -34 49 -42 57 -53 58 -83 97 -83 107 0 6 -8 18 -18 25 -9 7 -24 23 -32 34
-44 63 -105 140 -118 151 -8 7 -12 19 -9 28 7 15 28 20 40 8z m904 -1605 c-3
-8 -6 -5 -6 6 -1 11 2 17 5 13 3 -3 4 -12 1 -19z m3933 -3798 c0 -5 -4 -10
-10 -10 -5 0 -10 5 -10 10 0 6 5 10 10 10 6 0 10 -4 10 -10z m425 -140 c3 -6
-1 -7 -9 -4 -18 7 -21 14 -7 14 6 0 13 -4 16 -10z"/>
<path d="M7911 13134 c0 -11 3 -14 6 -6 3 7 2 16 -1 19 -3 4 -6 -2 -5 -13z"/>
<path d="M17896 14455 c-9 -26 -7 -32 5 -12 6 10 9 21 6 23 -2 3 -7 -2 -11
-11z"/>
<path d="M17832 14295 c-17 -37 -14 -45 4 -12 9 16 14 31 11 33 -2 2 -9 -7
-15 -21z"/>
<path d="M17806 14235 c-9 -26 -7 -32 5 -12 6 10 9 21 6 23 -2 3 -7 -2 -11
-11z"/>
<path d="M17786 14185 c-9 -26 -7 -32 5 -12 6 10 9 21 6 23 -2 3 -7 -2 -11
-11z"/>
<path d="M17665 13940 c-25 -49 -43 -90 -40 -90 3 0 25 41 50 90 25 50 43 90
40 90 -3 0 -25 -40 -50 -90z"/>
<path d="M17535 13690 c-9 -16 -13 -30 -11 -30 3 0 12 14 21 30 9 17 13 30 11
30 -3 0 -12 -13 -21 -30z"/>
<path d="M17490 13610 c-11 -22 -18 -40 -15 -40 2 0 14 18 25 40 11 22 18 40
15 40 -2 0 -14 -18 -25 -40z"/>
<path d="M17450 13540 c-6 -11 -8 -20 -6 -20 3 0 10 9 16 20 6 11 8 20 6 20
-3 0 -10 -9 -16 -20z"/>
<path d="M17400 13450 c-11 -22 -18 -40 -15 -40 2 0 14 18 25 40 11 22 18 40
15 40 -2 0 -14 -18 -25 -40z"/>
<path d="M18615 13470 c-188 -57 -834 -289 -1000 -360 -66 -28 -221 -92 -345
-141 -203 -82 -274 -114 -213 -95 16 5 23 2 28 -14 16 -50 105 -33 325 60 80
33 159 67 175 74 145 66 736 287 962 360 122 39 186 47 177 21 -13 -32 7 -13
27 26 18 36 19 45 8 65 -15 30 -57 31 -144 4z"/>
<path d="M17303 13290 c-40 -60 -70 -110 -68 -110 5 0 116 163 134 198 25 47
3 18 -66 -88z"/>
<path d="M18700 13330 c-6 -11 -8 -20 -6 -20 3 0 10 9 16 20 6 11 8 20 6 20
-3 0 -10 -9 -16 -20z"/>
<path d="M12895 13329 c-66 -4 -163 -13 -215 -19 -120 -14 -477 -83 -595 -114
-251 -68 -350 -96 -412 -119 -37 -14 -138 -51 -223 -82 -166 -61 -567 -254
-740 -355 -360 -213 -434 -261 -445 -289 -3 -8 3 -23 12 -34 23 -25 119 -97
131 -97 5 0 56 33 113 73 123 86 370 234 460 275 35 17 143 67 239 112 96 45
202 93 234 106 60 24 93 31 67 15 -7 -5 -9 -10 -5 -12 5 -2 52 17 104 43 52
26 89 47 82 48 -7 0 -73 -21 -145 -46 -73 -26 -138 -47 -144 -47 -7 0 -13 -3
-13 -7 0 -3 -16 -14 -36 -24 -26 -12 -40 -14 -47 -7 -6 6 -15 11 -21 11 -5 0
-1 -7 10 -16 15 -12 16 -15 2 -10 -9 3 -18 0 -20 -5 -2 -6 -15 -12 -30 -12
-14 -1 -24 -6 -21 -11 3 -5 0 -7 -8 -4 -28 9 -13 30 41 59 30 16 61 29 68 29
6 0 12 5 12 10 0 6 5 10 11 10 6 0 32 10 58 23 25 13 52 22 60 19 8 -3 11 0 7
7 -4 6 -1 11 8 11 8 0 61 20 118 44 232 98 654 213 1013 275 259 45 830 63
1200 37 468 -32 928 -116 1294 -236 110 -36 229 -89 253 -114 17 -16 16 -19
-18 -61 -24 -28 -42 -42 -53 -38 -14 4 -14 3 -1 -6 15 -12 51 22 132 122 l30
37 -54 24 c-357 158 -725 257 -1210 326 -374 53 -925 74 -1303 49z m-1699
-608 c-3 -5 2 -12 11 -15 14 -6 12 -9 -11 -21 -16 -8 -40 -14 -55 -14 -22 2
-23 2 -4 6 16 3 20 9 16 21 -6 15 -5 15 10 3 10 -8 21 -10 25 -6 4 4 1 10 -7
13 -11 4 -11 6 0 13 18 11 22 11 15 0z m-126 -85 c0 -2 -7 -7 -16 -10 -8 -3
-12 -2 -9 4 6 10 25 14 25 6z"/>
<path d="M18669 13278 c-7 -13 -19 -34 -27 -48 -14 -24 -13 -24 3 -5 20 24 48
75 41 75 -3 0 -11 -10 -17 -22z"/>
<path d="M18610 13180 c-6 -11 -8 -20 -6 -20 3 0 10 9 16 20 6 11 8 20 6 20
-3 0 -10 -9 -16 -20z"/>
<path d="M18579 13133 c-13 -16 -12 -17 4 -4 9 7 17 15 17 17 0 8 -8 3 -21
-13z"/>
<path d="M13660 13100 c0 -5 7 -7 15 -4 8 4 15 8 15 10 0 2 -7 4 -15 4 -8 0
-15 -4 -15 -10z"/>
<path d="M17164 13088 l-19 -23 23 19 c12 11 22 21 22 23 0 8 -8 2 -26 -19z"/>
<path d="M18529 13073 l-34 -38 38 34 c34 33 42 41 34 41 -2 0 -19 -17 -38
-37z"/>
<path d="M13708 13093 c7 -3 16 -2 19 1 4 3 -2 6 -13 5 -11 0 -14 -3 -6 -6z"/>
<path d="M13365 13074 c-16 -8 -21 -12 -10 -8 11 3 35 8 54 11 l35 6 -24 -37
c-49 -81 -207 -542 -274 -801 -149 -576 -294 -1374 -371 -2040 -43 -370 -50
-460 -66 -797 l-13 -267 25 -21 c43 -37 150 -113 153 -109 6 6 25 254 41 539
34 584 82 954 216 1675 120 644 152 794 210 998 33 115 58 211 55 214 -4 4
-26 -61 -26 -79 0 -4 -5 -19 -11 -35 -7 -15 -13 -35 -14 -43 -1 -8 -15 -55
-30 -105 -15 -49 -27 -91 -27 -92 1 -2 -5 -21 -13 -43 -8 -22 -14 -43 -14 -45
2 -19 -14 -86 -22 -91 -5 -3 -6 -17 -3 -31 5 -20 4 -24 -6 -18 -9 6 -12 4 -8
-6 3 -8 -5 -66 -18 -129 -12 -63 -20 -118 -18 -122 3 -5 0 -8 -6 -8 -7 0 -9
-7 -6 -16 7 -20 -3 -66 -14 -59 -4 3 -8 -5 -8 -18 0 -35 -14 -121 -21 -132 -4
-5 -8 -22 -9 -36 -1 -15 -8 -52 -16 -83 -8 -31 -13 -62 -10 -69 2 -7 -4 -13
-16 -14 -11 -1 -18 2 -16 6 3 4 12 59 20 122 9 62 18 128 20 144 6 39 31 170
51 265 9 41 20 93 24 115 5 22 17 78 28 125 11 47 28 126 37 175 18 94 32 148
47 177 5 10 9 24 9 33 0 30 112 395 130 420 21 30 64 176 64 218 1 42 -3 52
-27 71 -19 15 -26 28 -21 39 5 14 0 17 -22 17 -16 -1 -42 -8 -59 -16z m-295
-1950 c0 -8 -5 -12 -10 -9 -6 4 -8 11 -5 16 9 14 15 11 15 -7z m10 -28 c0 -3
-4 -8 -10 -11 -5 -3 -10 -1 -10 4 0 6 5 11 10 11 6 0 10 -2 10 -4z m-10 -37
c0 -5 -4 -7 -10 -4 -5 3 -10 1 -10 -6 0 -7 -3 -10 -6 -6 -8 7 4 27 17 27 5 0
9 -5 9 -11z m-3 -41 c-3 -8 -6 -5 -6 6 -1 11 2 17 5 13 3 -3 4 -12 1 -19z"/>
<path d="M13771 13070 c46 -24 100 -106 182 -280 77 -161 128 -342 208 -740
45 -225 54 -258 68 -250 9 4 52 41 95 82 l80 74 -33 165 c-48 244 -164 619
-246 797 -19 41 -35 77 -35 79 0 2 13 -3 30 -12 16 -8 33 -15 37 -15 4 1 -9
10 -30 21 -22 11 -41 18 -44 15 -3 -3 8 -37 25 -75 18 -41 29 -77 25 -87 -5
-13 -3 -15 7 -9 8 5 11 4 6 -3 -3 -5 8 -48 25 -94 17 -45 33 -94 35 -107 3
-13 19 -65 36 -115 17 -50 32 -102 34 -115 1 -14 7 -34 13 -45 19 -40 50 -151
55 -201 4 -27 11 -63 16 -80 9 -28 14 -86 11 -128 0 -11 -6 -15 -13 -11 -6 4
-8 3 -5 -3 4 -6 -6 -19 -21 -28 -15 -10 -24 -15 -20 -11 3 4 -2 16 -12 26 -10
10 -23 44 -30 77 -39 201 -126 549 -160 638 -25 67 -93 205 -141 285 -40 68
-89 130 -89 114 0 -5 -4 -4 -8 3 -8 12 -105 53 -125 53 -7 -1 4 -9 24 -20z"/>
<path d="M13577 12913 c-41 -92 -92 -213 -112 -268 -20 -55 -43 -117 -51 -138
-7 -20 -14 -43 -14 -50 1 -6 31 69 69 168 37 99 96 240 129 314 34 74 60 136
58 138 -2 2 -37 -72 -79 -164z"/>
<path d="M13280 13046 c-52 -20 -330 -198 -330 -211 0 -3 59 34 131 81 72 48
159 99 193 115 63 29 67 37 6 15z"/>
<path d="M17124 13038 l-19 -23 23 19 c21 18 27 26 19 26 -2 0 -12 -10 -23
-22z"/>
<path d="M18380 12918 c-77 -74 -88 -88 -35 -40 44 38 98 89 120 111 74 77 30
40 -85 -71z"/>
<path d="M17022 12920 c-77 -83 -91 -105 -52 -80 8 5 11 10 5 10 -5 0 13 24
41 53 63 66 99 107 93 107 -2 0 -41 -41 -87 -90z"/>
<path d="M14275 12906 c245 -151 454 -327 564 -474 29 -40 57 -72 61 -70 11 4
130 148 130 157 0 4 -55 64 -122 132 -68 69 -104 105 -81 80 23 -25 42 -48 41
-51 -4 -20 94 -165 104 -154 6 5 0 -54 -6 -73 -10 -26 -56 -3 -121 60 -37 37
-71 67 -76 67 -5 0 -12 7 -15 15 -4 8 -36 39 -73 67 -36 29 -77 63 -91 76 -14
12 -33 25 -42 28 -10 3 -18 9 -18 14 0 10 -51 43 -67 43 -6 0 -11 5 -10 11 1
6 -4 10 -10 9 -7 -2 -13 2 -13 7 0 6 -7 10 -15 10 -8 0 -15 5 -15 11 0 5 -4 8
-9 4 -5 -3 -13 -1 -16 5 -8 13 -97 57 -140 69 -16 5 -39 12 -50 16 -11 4 29
-22 90 -59z"/>
<path d="M12782 12947 c-12 -7 -20 -16 -17 -19 3 -3 -13 -18 -35 -33 -22 -15
-37 -32 -33 -38 3 -5 2 -7 -4 -4 -17 11 -199 -186 -311 -338 -125 -170 -232
-336 -350 -543 -45 -79 -82 -145 -82 -147 0 -2 -13 -32 -29 -67 -102 -223
-231 -555 -292 -756 -28 -92 -60 -194 -70 -226 -10 -33 -19 -66 -19 -75 0 -22
119 -241 130 -241 3 0 21 62 39 138 56 229 227 728 322 940 11 23 17 48 13 54
-4 6 -3 8 3 5 6 -4 39 56 78 141 37 81 87 180 111 220 25 40 41 78 38 84 -4 7
-2 8 4 4 14 -8 34 27 26 47 -3 8 -1 18 5 22 7 3 8 0 5 -9 -13 -34 6 -13 46 51
80 128 270 359 422 515 84 86 144 150 134 143 -23 -17 -236 -225 -230 -225 2
0 -17 -20 -43 -45 -25 -25 -52 -55 -58 -68 -6 -12 -16 -21 -22 -20 -6 1 -17
-5 -25 -14 -9 -12 -9 -15 0 -9 17 10 15 -2 -6 -29 -12 -15 -23 -20 -32 -15 -7
4 -20 6 -29 3 -15 -4 -15 -3 0 9 9 7 24 28 33 46 12 22 22 32 32 28 10 -4 12
-2 8 6 -4 6 1 17 11 24 10 8 16 16 13 20 -3 3 14 25 38 50 24 24 44 47 43 51
0 4 5 9 12 12 7 2 9 -1 4 -9 -5 -8 -4 -11 3 -6 6 4 9 13 6 20 -3 7 8 25 25 38
33 28 71 104 71 142 0 17 -8 30 -26 39 l-27 14 41 29 c23 16 44 35 46 42 6 14
7 15 -22 -1z m-279 -570 c5 3 -12 -21 -39 -55 -27 -33 -55 -61 -61 -61 -7 -1
-13 -6 -13 -12 0 -5 5 -7 10 -4 19 12 10 -2 -19 -28 -24 -21 -30 -23 -35 -11
-4 9 -2 12 5 8 7 -4 10 -1 7 7 -5 16 21 49 39 49 7 0 12 6 11 13 -2 6 3 11 11
9 12 -3 12 0 2 12 -11 13 -7 22 24 53 24 24 40 33 42 25 3 -6 10 -9 16 -5z
m-157 -212 c-1 -8 -5 -17 -8 -21 -5 -4 -4 16 1 34 3 9 9 -1 7 -13z"/>
<path d="M12445 12340 c-3 -5 -1 -10 4 -10 6 0 11 5 11 10 0 6 -2 10 -4 10 -3
0 -8 -4 -11 -10z"/>
<path d="M12370 12229 c0 -5 5 -7 10 -4 6 3 10 8 10 11 0 2 -4 4 -10 4 -5 0
-10 -5 -10 -11z"/>
<path d="M12280 12914 c-36 -14 -130 -50 -210 -81 -80 -32 -147 -58 -150 -58
-3 0 -15 -6 -28 -13 -12 -7 -28 -10 -34 -6 -7 4 -8 3 -4 -4 4 -7 2 -12 -4 -12
-10 0 -125 -52 -192 -86 -15 -8 -30 -14 -35 -13 -15 4 -60 -20 -66 -34 -3 -9
-15 -13 -34 -11 -19 3 -22 2 -11 -3 15 -7 14 -9 -7 -20 -14 -6 -23 -7 -19 -2
3 5 1 9 -5 9 -5 0 -11 -4 -13 -9 -1 -6 -15 -12 -30 -15 -36 -6 -50 -15 -43
-27 4 -5 1 -9 -6 -9 -7 0 -9 9 -6 23 6 21 6 21 -8 3 -8 -11 -15 -15 -15 -9 0
12 26 34 63 53 17 8 26 19 22 28 -4 10 1 12 18 6 12 -3 19 -3 15 1 -4 4 9 20
28 37 19 17 34 39 34 49 0 10 5 19 10 19 6 0 10 5 10 11 0 6 -7 9 -15 5 -8 -3
-15 -1 -15 4 0 6 6 10 13 10 6 0 -1 7 -16 15 -31 16 -74 4 -61 -17 4 -6 3 -8
-4 -5 -15 10 -43 -3 -35 -16 3 -6 1 -7 -5 -3 -22 13 -272 -145 -582 -369 -148
-107 -330 -249 -330 -258 0 -8 69 -179 75 -185 1 -2 52 37 111 86 131 106 389
292 536 386 59 38 105 72 103 76 -3 4 3 7 13 6 12 -1 17 6 16 21 -1 13 3 20 7
17 5 -3 7 -10 4 -15 -11 -16 3 -10 122 57 141 78 415 206 606 280 133 52 191
69 135 38 -33 -17 -34 -20 -9 -27 12 -3 18 0 15 7 -3 7 21 24 56 41 33 16 60
32 60 37 0 11 -4 10 -80 -18z m-766 -143 c3 -5 -1 -11 -9 -14 -9 -4 -12 -1 -8
9 6 16 10 17 17 5z m-84 -231 c0 -5 -5 -10 -11 -10 -5 0 -7 5 -4 10 3 6 8 10
11 10 2 0 4 -4 4 -10z m-82 -32 c-3 -7 -13 -15 -24 -17 -16 -3 -17 -1 -5 13
16 19 34 21 29 4z m-100 -84 c-5 -12 -38 -12 -45 -1 -3 6 -2 7 3 4 6 -3 16 -2
24 3 15 10 24 7 18 -6z"/>
<path d="M12629 12882 c-122 -55 -217 -107 -299 -161 -51 -34 -60 -37 -74 -25
-9 8 -11 9 -6 2 15 -18 12 -31 -6 -24 -8 3 -13 2 -10 -3 7 -10 -23 -26 -55
-30 -5 0 -7 -5 -4 -11 4 -6 -1 -7 -11 -3 -13 5 -15 3 -9 -8 4 -8 5 -11 1 -7
-11 9 -46 -24 -39 -36 4 -6 -2 -4 -12 4 -17 14 -18 13 -12 -2 3 -9 0 -21 -7
-27 -8 -7 -12 -5 -13 9 -1 11 9 28 22 38 14 11 21 23 17 27 -4 5 -1 5 7 0 8
-5 21 2 36 19 16 18 28 24 41 20 17 -6 17 -5 -1 9 -18 15 -19 16 -2 17 10 0
16 4 13 9 -4 5 -2 11 3 13 5 1 20 21 35 42 l26 39 -32 29 c-17 15 -35 28 -38
28 -8 0 -39 -20 -198 -132 -120 -85 -370 -323 -549 -523 -44 -49 -101 -112
-125 -140 -101 -111 -342 -465 -424 -621 l-55 -105 23 -72 c12 -40 25 -76 29
-80 3 -5 30 23 59 62 42 57 58 71 79 71 24 0 32 11 78 104 50 100 181 311 230
369 13 16 20 34 17 39 -4 6 -2 8 3 5 6 -4 44 32 84 80 41 48 116 135 167 192
78 88 90 106 80 120 -10 13 -10 14 2 3 12 -10 21 -6 52 25 31 30 35 39 25 52
-10 14 -10 14 5 3 15 -12 26 -4 95 61 182 172 481 380 688 477 66 31 136 63
155 72 19 9 31 17 25 17 -5 0 -58 -21 -116 -47z m-569 -344 c0 -5 -7 -7 -16
-4 -9 4 -13 2 -8 -5 7 -13 -13 -29 -36 -28 -8 0 -5 4 8 10 13 5 20 14 16 20
-3 6 -1 15 7 19 15 10 29 4 29 -12z m-130 -103 c-24 -25 -46 -45 -48 -45 -7 0
21 34 35 43 7 4 9 15 6 24 -5 12 -2 15 10 10 9 -3 17 -2 17 3 0 6 5 10 12 10
7 0 -8 -20 -32 -45z"/>
<path d="M14980 12911 c8 -7 47 -28 85 -48 39 -19 90 -49 115 -65 36 -23 39
-24 16 -5 -16 14 -23 26 -16 29 10 3 -143 76 -196 94 -16 5 -17 4 -4 -5z"/>
<path d="M14705 12834 c31 -25 59 -44 61 -41 3 3 -4 10 -15 17 -12 6 -19 15
-16 20 5 8 -63 50 -81 50 -3 0 20 -21 51 -46z"/>
<path d="M17000 12860 c-8 -5 -10 -10 -5 -10 6 0 17 5 25 10 8 5 11 10 5 10
-5 0 -17 -5 -25 -10z"/>
<path d="M14770 12816 c0 -3 19 -15 43 -27 23 -12 109 -62 191 -112 l148 -90
70 70 70 70 -33 22 c-23 15 -27 16 -13 4 18 -16 19 -21 7 -31 -7 -7 -11 -17
-8 -22 8 -13 -60 -67 -82 -65 -26 2 -85 26 -101 42 -7 7 -25 16 -40 19 -15 4
-78 33 -139 66 -62 33 -113 57 -113 54z"/>
<path d="M15230 12800 c19 -11 40 -19 45 -19 6 0 -6 8 -25 19 -19 11 -39 19
-45 19 -5 0 6 -8 25 -19z"/>
<path d="M18224 12778 l-29 -33 33 29 c17 17 32 31 32 33 0 8 -8 1 -36 -29z"/>
<path d="M18120 12688 c-38 -35 -43 -41 -15 -20 37 28 83 73 74 72 -2 -1 -29
-24 -59 -52z"/>
<path d="M18010 12599 l-45 -41 42 32 c37 27 61 51 51 50 -2 0 -23 -19 -48
-41z"/>
<path d="M17934 12538 l-19 -23 23 19 c21 18 27 26 19 26 -2 0 -12 -10 -23
-22z"/>
<path d="M17870 12489 c-35 -31 -35 -31 -3 -9 18 11 35 25 38 30 10 16 2 11
-35 -21z"/>
<path d="M12516 12455 c-9 -26 -7 -32 5 -12 6 10 9 21 6 23 -2 3 -7 -2 -11
-11z"/>
<path d="M17776 12425 c-27 -18 -54 -39 -60 -46 -6 -6 17 7 52 30 34 23 62 44
62 46 0 7 -1 7 -54 -30z"/>
<path d="M17606 12309 c-73 -48 -84 -59 -30 -29 39 21 105 70 94 69 -3 0 -32
-18 -64 -40z"/>
<path d="M18255 12269 c-264 -55 -752 -138 -833 -140 -20 -1 -29 -3 -19 -6 9
-2 17 -10 17 -17 0 -7 9 -21 21 -32 45 -41 283 -9 879 116 237 50 288 56 314
37 17 -13 17 -15 2 -45 -9 -18 -14 -32 -11 -32 8 0 40 76 49 112 5 20 1 33
-14 48 -31 31 -94 25 -405 -41z"/>
<path d="M17478 12234 c-27 -13 -48 -27 -48 -29 0 -3 23 6 50 20 28 14 50 28
50 30 0 7 1 7 -52 -21z"/>
<path d="M17388 12184 c-38 -20 -36 -28 2 -9 17 9 30 18 30 20 0 7 -1 6 -32
-11z"/>
<path d="M17284 12125 c-17 -13 -14 -14 41 -13 49 1 52 2 17 5 -23 2 -40 8
-37 14 9 13 2 11 -21 -6z"/>
<path d="M18580 12100 c-17 -22 -29 -40 -27 -40 3 0 20 18 37 40 17 22 29 40
27 40 -3 0 -20 -18 -37 -40z"/>
<path d="M18524 12028 l-19 -23 23 19 c12 11 22 21 22 23 0 8 -8 2 -26 -19z"/>
<path d="M18405 11908 l-80 -83 83 80 c45 44 82 81 82 82 0 8 -11 -3 -85 -79z"/>
<path d="M18225 11743 c-49 -48 -67 -68 -40 -46 49 40 144 133 135 133 -3 -1
-45 -40 -95 -87z"/>
<path d="M18050 11594 c-95 -80 -107 -97 -17 -24 68 56 96 81 85 80 -2 -1 -32
-26 -68 -56z"/>
<path d="M17880 11459 c-80 -62 -101 -83 -38 -39 51 35 116 89 108 89 -3 0
-34 -23 -70 -50z"/>
<path d="M17769 11373 c-13 -16 -12 -17 4 -4 9 7 17 15 17 17 0 8 -8 3 -21
-13z"/>
<path d="M17729 11343 c-13 -16 -12 -17 4 -4 9 7 17 15 17 17 0 8 -8 3 -21
-13z"/>
<path d="M17650 11289 c-78 -57 -87 -70 -12 -19 54 37 82 61 70 60 -2 -1 -28
-19 -58 -41z"/>
<path d="M18150 11240 c-124 -16 -308 -36 -410 -46 -102 -10 -175 -20 -162
-23 13 -3 23 -10 22 -14 -2 -16 43 -47 78 -53 45 -9 113 -3 464 41 334 41 406
44 430 16 15 -18 14 -21 -14 -57 l-30 -39 37 40 c59 64 70 110 35 145 -18 18
-32 20 -122 19 -57 -1 -204 -14 -328 -29z"/>
<path d="M17535 11204 l-30 -26 33 22 c17 12 32 23 32 26 0 7 -4 5 -35 -22z"/>
<path d="M17484 11169 c-3 -5 9 -9 25 -9 17 0 31 2 31 4 0 8 -51 13 -56 5z"/>
<path d="M18470 11000 c-29 -33 -50 -60 -47 -60 3 0 28 27 57 60 29 33 50 60
47 60 -3 0 -28 -27 -57 -60z"/>
<path d="M18395 10920 c-3 -5 -1 -10 4 -10 6 0 11 5 11 10 0 6 -2 10 -4 10 -3
0 -8 -4 -11 -10z"/>
<path d="M18324 10838 l-19 -23 23 19 c21 18 27 26 19 26 -2 0 -12 -10 -23
-22z"/>
<path d="M18225 10759 c-39 -28 -87 -60 -107 -70 -21 -11 -38 -22 -38 -24 0
-10 66 28 143 83 68 49 84 62 74 62 -1 0 -34 -23 -72 -51z"/>
<path d="M18018 10634 c-27 -13 -48 -27 -48 -29 0 -3 23 6 50 20 28 14 50 28
50 30 0 7 1 7 -52 -21z"/>
<path d="M17870 10555 c-36 -19 -61 -34 -57 -35 10 0 127 59 127 65 0 7 2 8
-70 -30z"/>
<path d="M18028 10535 l-87 -45 98 -172 98 -172 136 -48 c76 -26 137 -44 137
-39 0 4 -54 111 -121 237 -66 126 -125 241 -132 257 -6 15 -18 27 -27 26 -8 0
-54 -20 -102 -44z m160 -111 c12 -8 22 -22 22 -30 0 -9 12 -31 26 -49 15 -20
23 -39 18 -47 -4 -7 -4 -10 1 -6 8 8 38 -44 61 -105 12 -33 12 -39 -2 -44 -13
-5 -13 -7 -2 -14 10 -7 9 -9 -4 -9 -9 0 -19 4 -23 10 -3 5 -12 7 -20 3 -8 -3
-15 0 -15 7 0 6 -4 9 -9 6 -13 -8 -45 31 -94 115 -51 86 -63 128 -47 158 13
25 56 28 88 5z"/>
<path d="M17680 10465 c-47 -24 -80 -44 -75 -44 6 0 48 20 95 44 47 24 81 44
75 44 -5 0 -48 -20 -95 -44z"/>
<path d="M17545 10405 c-25 -12 -26 -14 -5 -9 28 7 60 23 45 23 -5 0 -23 -6
-40 -14z"/>
<path d="M17435 10365 c-25 -12 -26 -14 -5 -9 28 7 60 23 45 23 -5 0 -23 -6
-40 -14z"/>
<path d="M17317 10323 c-37 -14 -66 -27 -64 -29 4 -4 138 44 146 52 9 9 -17 2
-82 -23z"/>
<path d="M17190 10272 c0 -5 28 -13 63 -16 60 -7 64 -9 73 -39 11 -39 59 -60
240 -108 65 -17 166 -46 224 -64 398 -126 529 -170 561 -186 40 -20 57 -54 31
-64 -8 -3 -13 -8 -10 -11 11 -10 78 39 84 61 15 61 -8 71 -741 306 -150 48
-346 99 -420 110 -38 5 -78 12 -87 15 -10 3 -18 1 -18 -4z"/>
<path d="M18330 9770 c-8 -5 -10 -10 -5 -10 6 0 17 5 25 10 8 5 11 10 5 10 -5
0 -17 -5 -25 -10z"/>
<path d="M18280 9750 c-8 -5 -10 -10 -5 -10 6 0 17 5 25 10 8 5 11 10 5 10 -5
0 -17 -5 -25 -10z"/>
<path d="M18215 9725 c-25 -12 -26 -14 -5 -9 28 7 60 23 45 23 -5 0 -23 -6
-40 -14z"/>
<path d="M18441 9673 c-46 -31 -85 -62 -87 -68 -3 -7 22 -92 55 -191 121 -359
178 -612 225 -994 14 -113 26 -257 28 -322 l3 -116 -130 -4 c-71 -2 -176 -1
-231 1 l-101 3 -7 177 c-15 391 -45 759 -76 927 -18 98 -107 454 -116 463 -3
3 -185 -29 -192 -34 -1 -1 9 -44 23 -96 108 -397 158 -785 167 -1279 l3 -165
-440 -2 c-242 -1 -452 1 -466 4 l-26 5 -6 281 c-5 242 -43 863 -63 1010 -6 46
-6 47 -42 47 -36 0 -38 -2 -100 -109 l-63 -109 15 -84 c41 -220 66 -542 66
-840 l0 -208 -308 0 -309 0 -51 -107 -51 -108 349 -3 350 -2 0 -58 c0 -321
-93 -963 -175 -1200 -14 -41 -25 -80 -25 -88 0 -15 77 -18 159 -6 44 7 45 8
71 72 15 36 41 128 58 205 71 317 103 565 118 915 l7 160 460 0 460 0 -7 -127
c-16 -285 -92 -795 -152 -1008 -20 -71 -40 -143 -44 -160 -82 -319 -181 -589
-351 -963 -16 -35 -29 -67 -29 -71 0 -8 151 -113 156 -108 2 1 44 88 95 192
107 223 152 333 145 352 -3 8 -2 12 3 9 12 -8 50 102 121 354 149 524 217 848
244 1162 15 164 21 347 12 337 -2 -2 -7 -60 -10 -129 -4 -69 -11 -163 -16
-210 -5 -47 -12 -112 -14 -145 -7 -75 -24 -189 -36 -235 -4 -19 -11 -59 -15
-87 -4 -29 -11 -53 -17 -53 -5 0 -6 -9 -3 -20 4 -12 2 -20 -5 -20 -7 0 -9 -7
-6 -16 3 -9 2 -12 -5 -9 -6 4 -7 -3 -3 -19 5 -22 3 -25 -12 -20 -14 4 -15 3
-6 -4 11 -7 11 -16 -2 -47 -9 -21 -14 -48 -11 -59 5 -16 4 -18 -4 -6 -5 8 -13
11 -17 7 -4 -4 -2 -13 4 -19 7 -7 12 -21 11 -32 0 -21 0 -21 -10 -1 l-9 20 2
-20 c2 -27 -19 -75 -33 -75 -7 0 -9 9 -4 28 4 15 11 43 15 63 4 19 11 42 15
50 5 8 8 26 6 41 -1 17 2 28 9 28 10 0 10 3 0 15 -6 8 -9 18 -6 24 3 5 8 33
11 63 3 29 10 76 15 103 5 28 16 111 25 185 8 74 17 146 19 160 13 73 28 285
24 323 -11 98 -59 148 -153 160 -66 9 -766 8 -830 -1 l-50 -7 -7 -60 c-12
-110 -28 -279 -34 -383 -4 -57 -10 -99 -13 -93 -6 8 -9 -43 -11 -151 -1 -16
-5 -28 -9 -28 -5 0 -7 -9 -4 -20 3 -12 0 -20 -7 -20 -7 0 -10 -7 -6 -16 3 -9
-8 -72 -25 -141 -16 -69 -28 -132 -25 -140 3 -8 1 -11 -4 -8 -13 8 -13 46 0
79 8 21 7 24 -7 19 -13 -5 -14 -3 -4 15 6 11 15 74 21 139 15 172 21 227 27
236 8 13 18 216 18 357 0 115 -2 128 -23 158 -13 18 -42 42 -65 54 -38 19 -61
22 -247 25 -224 4 -250 7 -250 27 0 31 29 36 246 41 205 6 222 8 270 31 44 21
55 32 74 76 12 28 24 74 27 102 5 58 -22 551 -36 641 -6 33 -12 78 -16 100 -3
22 -10 67 -15 100 -14 86 -12 142 5 176 22 41 50 25 59 -33 9 -60 18 -204 17
-258 -1 -25 4 -121 10 -215 6 -93 12 -255 14 -360 2 -104 8 -202 13 -216 6
-15 8 -30 4 -35 -4 -4 -1 -4 7 1 9 5 12 3 9 -6 -6 -19 50 -68 92 -79 20 -6
196 -10 406 -10 421 0 453 4 499 65 15 19 29 54 33 81 18 121 -39 801 -83
1001 -15 69 -18 82 -55 235 -24 100 -23 146 3 162 15 9 21 7 33 -8 8 -11 14
-16 14 -10 1 18 50 -143 65 -212 8 -39 17 -78 20 -85 2 -8 7 -27 10 -44 2 -16
9 -55 14 -85 6 -30 12 -106 15 -168 3 -62 8 -123 10 -135 3 -12 7 -78 10 -147
7 -147 17 -378 21 -435 1 -22 2 -54 3 -71 2 -39 65 -109 108 -121 16 -4 101
-8 189 -8 187 0 223 11 259 81 33 62 25 207 -28 564 -47 313 -94 505 -205 835
-23 66 -41 129 -41 140 0 62 73 88 106 38 9 -15 17 -33 17 -40 0 -7 4 -13 9
-13 4 0 7 -3 6 -7 -1 -5 8 -39 20 -78 36 -119 97 -374 117 -494 5 -26 13 -67
34 -171 6 -30 18 -111 25 -180 13 -112 18 -167 33 -335 2 -27 6 -162 10 -300
6 -265 -13 -624 -43 -835 -8 -58 -17 -125 -20 -149 -16 -149 -132 -595 -176
-674 -7 -12 -11 -31 -10 -42 2 -17 1 -18 -8 -5 -8 11 -9 8 -4 -14 5 -22 4 -27
-6 -21 -9 5 -11 4 -6 -4 7 -10 -21 -108 -34 -121 -3 -3 -6 -16 -8 -30 -1 -13
-7 -27 -14 -31 -6 -4 -7 -12 -3 -19 5 -9 4 -11 -3 -6 -7 4 -12 4 -13 -1 -6
-70 -30 -130 -48 -119 -5 3 -7 -10 -5 -29 1 -20 -1 -33 -6 -30 -12 8 -21 -11
-22 -45 -1 -16 -5 -27 -10 -24 -4 3 -8 -4 -8 -15 0 -11 -5 -23 -11 -26 -6 -4
-8 -13 -5 -21 3 -8 0 -11 -8 -8 -9 4 -13 -3 -13 -22 0 -14 -5 -29 -10 -33 -9
-5 -24 -40 -28 -61 0 -3 -6 -15 -13 -28 -7 -12 -10 -27 -7 -32 4 -6 -1 -7 -11
-3 -13 5 -15 2 -10 -15 4 -11 2 -23 -4 -27 -6 -3 -17 -22 -25 -41 -8 -20 -19
-33 -25 -29 -6 3 -10 -3 -10 -16 0 -18 -2 -19 -15 -9 -17 14 -21 35 -5 25 6
-3 10 0 10 8 0 8 14 41 31 75 17 34 28 66 25 71 -3 5 1 14 9 21 8 7 15 18 15
24 0 23 56 126 65 119 4 -5 5 -2 1 4 -4 7 5 41 19 75 15 35 27 71 27 81 -1 9
4 17 9 17 6 0 7 9 4 20 -4 14 -2 20 8 20 8 0 15 10 15 23 0 12 7 40 15 62 44
115 71 195 83 240 28 108 54 204 78 295 50 182 105 541 131 845 25 294 22 319
-50 383 l-37 32 -192 -3 -191 -2 193 -3 192 -2 0 -37 c0 -139 -44 -579 -75
-748 -13 -71 -32 -170 -41 -220 -45 -249 -241 -829 -372 -1105 -171 -359 -219
-448 -364 -685 -78 -126 -253 -374 -283 -400 -6 -5 -48 -51 -94 -102 l-82 -91
-90 -238 c-49 -131 -89 -242 -89 -248 0 -21 220 208 359 374 177 211 308 382
423 552 115 169 251 405 242 419 -4 7 -3 9 3 6 13 -8 168 319 266 563 92 228
211 595 271 836 155 622 167 1577 27 2256 -59 285 -125 542 -178 687 -25 69
-48 132 -52 139 -5 9 -31 -4 -90 -45z m-1544 -2975 c-3 -8 -6 -5 -6 6 -1 11 2
17 5 13 3 -3 4 -12 1 -19z m2 -62 c-9 -8 -10 -7 -5 7 3 10 7 24 7 30 1 7 3 4
6 -7 3 -10 -1 -23 -8 -30z m1087 -146 c0 -11 -4 -20 -9 -20 -5 0 -7 -9 -4 -21
5 -20 5 -20 -14 -3 -20 18 -20 18 -10 -10 8 -19 8 -33 0 -48 -17 -32 -29 -79
-18 -73 5 4 0 -10 -12 -29 -11 -19 -18 -40 -14 -46 3 -5 1 -10 -4 -10 -6 0
-11 -12 -11 -27 0 -22 -2 -25 -10 -13 -12 19 -13 53 -1 46 5 -3 12 18 16 46 4
29 14 64 22 76 8 13 12 26 9 29 -3 4 -1 12 5 19 6 8 9 21 5 29 -7 18 3 47 14
40 5 -3 6 4 3 15 -4 15 0 20 14 20 12 0 19 -7 19 -20z m-33 -145 c-3 -9 -8
-14 -10 -11 -3 3 -2 9 2 15 9 16 15 13 8 -4z m-85 -216 c-13 -38 -16 -37 -12
4 1 17 3 37 4 42 0 6 4 4 9 -4 5 -8 5 -26 -1 -42z m-47 -163 c-6 -7 -9 -22 -5
-32 5 -18 5 -18 -10 0 -16 20 -6 46 16 46 6 0 6 -6 -1 -14z m-40 -90 c14 8 11
-12 -3 -24 -10 -8 -13 -4 -14 16 -1 15 1 21 3 14 3 -6 9 -10 14 -6z m-48 -151
c-9 -16 -10 -16 -16 -1 -5 12 -3 15 5 10 8 -5 9 -1 4 12 -5 14 -4 16 4 7 8 -7
9 -17 3 -28z m469 -428 c5 -23 -17 -60 -37 -66 -5 -1 -13 -11 -17 -22 -5 -13
-4 -18 3 -13 6 3 3 -8 -5 -25 -20 -37 -25 -39 -24 -8 1 30 18 77 29 77 5 0 9
9 9 19 0 11 5 23 12 27 6 4 8 3 4 -4 -3 -6 -2 -13 3 -16 5 -3 7 10 4 30 -5 40
12 40 19 1z m-95 -159 c-3 -8 -6 -5 -6 6 -1 11 2 17 5 13 3 -3 4 -12 1 -19z
m-66 -121 c-10 -9 -11 -8 -5 6 3 10 9 15 12 12 3 -3 0 -11 -7 -18z"/>
<path d="M18150 9700 c-8 -5 -10 -10 -5 -10 6 0 17 5 25 10 8 5 11 10 5 10 -5
0 -17 -5 -25 -10z"/>
<path d="M18075 9675 c-22 -8 -31 -14 -20 -14 11 0 34 6 50 14 38 17 22 17
-30 0z"/>
<path d="M18008 9653 c7 -3 16 -2 19 1 4 3 -2 6 -13 5 -11 0 -14 -3 -6 -6z"/>
<path d="M17958 9643 c6 -2 18 -2 25 0 6 3 1 5 -13 5 -14 0 -19 -2 -12 -5z"/>
<path d="M17880 9630 c-20 -6 -21 -8 -5 -8 11 0 31 4 45 8 20 6 21 8 5 8 -11
0 -31 -4 -45 -8z"/>
<path d="M17818 9613 c6 -2 18 -2 25 0 6 3 1 5 -13 5 -14 0 -19 -2 -12 -5z"/>
<path d="M17768 9603 c6 -2 18 -2 25 0 6 3 1 5 -13 5 -14 0 -19 -2 -12 -5z"/>
<path d="M17655 9585 c-89 -19 -105 -25 -55 -19 55 6 163 32 135 32 -11 0 -47
-5 -80 -13z"/>
<path d="M17337 9522 c-92 -19 -165 -37 -163 -39 4 -5 368 66 375 73 10 9 -54
-1 -212 -34z"/>
<path d="M17128 9473 c6 -2 18 -2 25 0 6 3 1 5 -13 5 -14 0 -19 -2 -12 -5z"/>
<path d="M17015 9455 c-67 -17 -36 -18 40 -1 33 8 49 14 35 14 -14 0 -47 -6
-75 -13z"/>
<path d="M16938 9433 c7 -3 16 -2 19 1 4 3 -2 6 -13 5 -11 0 -14 -3 -6 -6z"/>
<path d="M16868 9378 c-58 -69 -225 -364 -214 -376 3 -2 28 41 55 97 65 129
123 223 173 284 21 26 37 47 34 47 -2 0 -24 -24 -48 -52z"/>
<path d="M16570 8853 c-38 -76 -78 -154 -89 -173 -93 -161 -231 -424 -231
-440 0 -5 -4 -10 -8 -10 -4 0 -8 -8 -9 -19 -1 -10 -13 -42 -27 -71 -14 -30
-26 -60 -26 -67 0 -8 -5 -11 -12 -7 -7 5 -9 2 -5 -8 3 -9 -1 -25 -9 -37 -9
-12 -17 -32 -20 -45 -6 -35 -30 -77 -38 -68 -5 4 -7 0 -5 -8 5 -23 -10 -72
-20 -66 -5 3 -8 0 -8 -7 1 -6 -3 -29 -7 -50 -6 -27 -5 -42 4 -50 10 -9 11 -7
6 10 -12 40 198 525 339 783 131 241 248 470 240 470 -3 0 -36 -62 -75 -137z"/>
<path d="M7983 8663 c-51 -109 -83 -617 -64 -1018 17 -373 26 -467 70 -726
123 -724 376 -1394 759 -2009 83 -133 206 -309 226 -322 5 -4 62 -16 125 -28
64 -11 129 -23 144 -26 28 -6 28 -5 -23 63 -256 343 -383 549 -579 940 -318
637 -505 1355 -547 2101 l-7 122 275 0 275 0 6 -67 c4 -38 9 -122 12 -188 31
-658 164 -1378 343 -1857 76 -202 220 -535 305 -703 230 -455 415 -713 562
-784 75 -35 85 -36 139 -12 l38 17 -93 120 c-213 274 -261 353 -483 785 -135
263 -231 497 -361 879 -59 174 -117 320 -182 460 -135 290 -142 309 -143 361
0 25 16 133 35 240 l36 194 -7 278 -7 277 189 0 189 1 129 82 c72 45 131 87
133 93 4 11 -286 24 -530 24 l-109 0 7 128 c3 70 15 186 25 257 10 72 21 160
25 196 8 76 12 73 -85 84 l-56 6 -22 -39 c-27 -48 -57 -256 -69 -472 l-8 -145
-45 -7 c-56 -8 -375 -8 -455 1 l-60 6 3 80 c3 79 33 381 52 525 5 41 10 87 10
103 l0 27 -78 0 -77 0 -22 -47z"/>
<path d="M14683 7949 c-2 -16 0 -17 18 -1 10 9 19 17 19 17 0 0 -8 1 -18 1
-10 0 -19 -8 -19 -17z"/>
<path d="M14580 7790 c0 -5 5 -10 11 -10 5 0 7 5 4 10 -3 6 -8 10 -11 10 -2 0
-4 -4 -4 -10z"/>
<path d="M18190 7743 c0 -12 3 -14 8 -6 4 6 23 13 42 16 33 4 33 4 -7 5 -35 2
-43 -1 -43 -15z"/>
<path d="M9989 6581 c-4 -42 6 -195 21 -306 54 -390 140 -746 275 -1139 81
-235 190 -496 207 -496 12 0 168 79 168 85 0 2 -21 51 -46 107 -44 99 -143
356 -184 477 -32 97 -197 759 -219 881 -12 63 -25 166 -30 228 -5 63 -11 115
-13 117 -9 8 -178 52 -179 46z"/>
<path d="M11198 5886 c-14 -10 -18 -28 -18 -72 1 -99 42 -334 59 -334 4 0 40
28 79 61 48 41 71 67 68 78 -2 9 -7 41 -11 71 -5 52 -11 62 -76 133 -39 42
-74 77 -77 77 -4 0 -15 -7 -24 -14z"/>
<path d="M18276 5507 c3 -10 9 -15 12 -12 3 3 0 11 -7 18 -10 9 -11 8 -5 -6z"/>
<path d="M18260 5465 c0 -5 5 -17 10 -25 5 -8 10 -10 10 -5 0 6 -5 17 -10 25
-5 8 -10 11 -10 5z"/>
<path d="M12075 3130 c4 -6 -1 -22 -10 -36 -9 -15 -13 -30 -8 -39 9 -15 121
-105 132 -105 10 0 126 119 120 124 -2 2 -45 18 -95 35 -92 31 -151 40 -139
21z"/>
<path d="M11781 2977 c-28 -28 -1 -122 43 -150 14 -10 97 -44 184 -77 86 -33
153 -60 147 -60 -5 0 -89 24 -185 54 -97 30 -204 60 -239 66 -56 10 -65 9 -82
-6 -11 -10 -19 -30 -19 -51 0 -18 -3 -33 -7 -33 -27 1 -178 56 -235 85 -90 48
-148 68 -148 52 0 -7 -3 -22 -6 -35 -6 -20 3 -27 87 -66 146 -69 366 -140 705
-226 303 -78 563 -130 648 -130 61 0 72 17 79 126 7 95 -2 261 -12 247 -3 -4
-13 -9 -21 -11 -8 -2 -28 -10 -45 -17 -36 -16 -115 -32 -205 -40 -121 -12
-317 29 -470 98 -46 21 -52 26 -35 33 11 4 45 18 75 32 l55 24 -40 15 c-122
44 -264 80 -274 70z"/>
<path d="M14270 2623 c-95 -12 -246 -48 -253 -60 -5 -7 -12 -11 -18 -8 -5 4
-9 0 -9 -7 0 -10 -3 -9 -11 2 -8 12 -9 11 -5 -5 2 -11 8 -48 11 -83 4 -39 12
-65 21 -69 43 -16 768 127 747 148 -5 4 -75 17 -158 28 -82 10 -157 22 -165
25 -35 13 -137 32 -160 29z"/>
</g>
</svg>
