<svg xmlns="http://www.w3.org/2000/svg" width="30" height="24" viewBox="0 0 30 24">
  <defs>
    <style>
      .cls-1 {
        fill: #fff;
        fill-rule: evenodd;
      }
    </style>
  </defs>
  <path id="ic_play" data-name="ic play" class="cls-1" d="M11.164,16.01a0.614,0.614,0,0,0,.388.613,0.829,0.829,0,0,0,.807-0.092l6.818-4.12a0.736,0.736,0,0,0,.363-0.671,0.709,0.709,0,0,0-.363-0.645L12.36,6.948a0.851,0.851,0,0,0-.788-0.079,0.59,0.59,0,0,0-.407.6V16.01ZM4,24H26a4.062,4.062,0,0,0,2.971-1.255,4.164,4.164,0,0,0,.992-3.032L30,4A4.733,4.733,0,0,0,28.972.76C28.31,0.086,27.34,0,26,0H4A4.048,4.048,0,0,0,1,1,4.068,4.068,0,0,0,0,4V20a3.441,3.441,0,0,0,.97,2.745A4.228,4.228,0,0,0,4,24Zm0-2a2.252,2.252,0,0,1-1.472-.859,2.1,2.1,0,0,1-.509-1.532L2,4a2.374,2.374,0,0,1,.528-1.636A1.951,1.951,0,0,1,4,2H26a1.787,1.787,0,0,1,1.4.364A2.379,2.379,0,0,1,28,4V20a1.284,1.284,0,0,1-.6,1.141A2.121,2.121,0,0,1,26,22H4Z"/>
</svg>
